<svg width="24" height="24" viewBox="0 0 24 24" fill="none" xmlns="http://www.w3.org/2000/svg">
<path d="M22 23.3257H15.999C15.7338 23.3257 15.4794 23.2204 15.2919 23.0328C15.1044 22.8453 14.999 22.591 14.999 22.3257V16.8707C15.0063 16.4726 14.9341 16.0771 14.7868 15.7071C14.6395 15.3372 14.4199 15.0004 14.141 14.7162C13.862 14.4321 13.5292 14.2064 13.162 14.0524C12.7949 13.8983 12.4007 13.819 12.0025 13.819C11.6043 13.819 11.2101 13.8983 10.843 14.0524C10.4758 14.2064 10.143 14.4321 9.86403 14.7162C9.58506 15.0004 9.3655 15.3372 9.21818 15.7071C9.07086 16.0771 8.99873 16.4726 9.006 16.8707V22.3257C9.006 22.591 8.90064 22.8453 8.71311 23.0328C8.52557 23.2204 8.27122 23.3257 8.006 23.3257H2C1.73478 23.3257 1.48043 23.2204 1.29289 23.0328C1.10536 22.8453 1 22.591 1 22.3257V11.8687C1.00009 11.7334 1.02761 11.5994 1.08088 11.475C1.13416 11.3506 1.2121 11.2382 1.31 11.1447L11.31 1.60174C11.4961 1.42468 11.7431 1.32593 12 1.32593C12.2569 1.32593 12.5039 1.42468 12.69 1.60174L22.69 11.1447C22.7879 11.2382 22.8658 11.3506 22.9191 11.475C22.9724 11.5994 22.9999 11.7334 23 11.8687V22.3257C23 22.591 22.8946 22.8453 22.7071 23.0328C22.5196 23.2204 22.2652 23.3257 22 23.3257Z" fill="url(#paint0_linear_1_1274)"/>
<defs>
<linearGradient id="paint0_linear_1_1274" x1="12" y1="1.32593" x2="12" y2="23.3257" gradientUnits="userSpaceOnUse">
<stop stop-color="#FC14CB"/>
<stop offset="1" stop-color="#4F52FE"/>
</linearGradient>
</defs>
</svg>
