<svg width="25" height="25" viewBox="0 0 25 25" fill="none" xmlns="http://www.w3.org/2000/svg">
<path d="M24 19.5C24 21.9052 21.8451 24 19 24C16.1549 24 14 21.9052 14 19.5C14 17.0948 16.1549 15 19 15C21.8451 15 24 17.0948 24 19.5Z" stroke="black" stroke-width="2"/>
<path d="M11 5C11 7.04617 8.93988 9 6 9C3.06012 9 1 7.04617 1 5C1 2.95383 3.06012 1 6 1C8.93988 1 11 2.95383 11 5Z" stroke="black" stroke-width="2"/>
<path d="M24 5C24 7.04617 21.9399 9 19 9C16.0601 9 14 7.04617 14 5C14 2.95383 16.0601 1 19 1C21.9399 1 24 2.95383 24 5Z" stroke="black" stroke-width="2"/>
<path d="M11 18.5C11 20.9052 8.84511 23 6 23C3.15489 23 1 20.9052 1 18.5C1 16.0948 3.15489 14 6 14C8.84511 14 11 16.0948 11 18.5Z" stroke="black" stroke-width="2"/>
</svg>
