<svg width="18" height="18" viewBox="0 0 18 18" fill="none" xmlns="http://www.w3.org/2000/svg">
<rect x="0.5" y="0.5" width="17" height="17" rx="8.5" fill="white"/>
<rect x="0.5" y="0.5" width="17" height="17" rx="8.5" stroke="#FAFAFA"/>
<g clip-path="url(#clip0_1_1209)">
<rect width="16" height="16" transform="translate(1 1)" fill="white"/>
<path d="M9.00066 1.33606C7.48433 1.33606 6.00206 1.7857 4.74128 2.62813C3.48051 3.47055 2.49785 4.66792 1.91758 6.06882C1.33731 7.46972 1.18548 9.01123 1.4813 10.4984C1.77712 11.9856 2.5073 13.3517 3.5795 14.4239C4.65171 15.4961 6.01777 16.2263 7.50496 16.5221C8.99215 16.8179 10.5337 16.6661 11.9346 16.0858C13.3355 15.5055 14.5328 14.5229 15.3753 13.2621C16.2177 12.0013 16.6673 10.519 16.6673 9.00273C16.665 6.9701 15.8566 5.02139 14.4193 3.58411C12.982 2.14683 11.0333 1.33835 9.00066 1.33606ZM12.334 9.66939H9.66732V12.3361C9.66732 12.5129 9.59708 12.6824 9.47206 12.8075C9.34704 12.9325 9.17747 13.0027 9.00066 13.0027C8.82384 13.0027 8.65427 12.9325 8.52925 12.8075C8.40423 12.6824 8.33399 12.5129 8.33399 12.3361V9.66939H5.66732C5.49051 9.66939 5.32094 9.59916 5.19592 9.47413C5.07089 9.34911 5.00065 9.17954 5.00065 9.00273C5.00065 8.82592 5.07089 8.65635 5.19592 8.53132C5.32094 8.4063 5.49051 8.33606 5.66732 8.33606H8.33399V5.66939C8.33399 5.49258 8.40423 5.32301 8.52925 5.19799C8.65427 5.07296 8.82384 5.00273 9.00066 5.00273C9.17747 5.00273 9.34704 5.07296 9.47206 5.19799C9.59708 5.32301 9.66732 5.49258 9.66732 5.66939V8.33606H12.334C12.5108 8.33606 12.6804 8.4063 12.8054 8.53132C12.9304 8.65635 13.0007 8.82592 13.0007 9.00273C13.0007 9.17954 12.9304 9.34911 12.8054 9.47413C12.6804 9.59916 12.5108 9.66939 12.334 9.66939Z" fill="url(#paint0_linear_1_1209)"/>
</g>
<defs>
<linearGradient id="paint0_linear_1_1209" x1="9.00065" y1="1.33606" x2="9.00065" y2="16.6694" gradientUnits="userSpaceOnUse">
<stop offset="1" stop-color="#10B981"/>
</linearGradient>
<clipPath id="clip0_1_1209">
<rect width="16" height="16" fill="white" transform="translate(1 1)"/>
</clipPath>
</defs>
</svg>
