<svg width="351" height="68" viewBox="0 0 351 68" fill="none" xmlns="http://www.w3.org/2000/svg">
<g filter="url(#filter0_dd_359_1179)">
<rect x="8" y="4" width="335" height="56" rx="16" fill="url(#paint0_linear_359_1179)"/>
<path fill-rule="evenodd" clip-rule="evenodd" d="M311 24L309.59 25.41L315.17 31H303V33H315.17L309.59 38.59L311 40L319 32L311 24Z" fill="white"/>
<path d="M31.68 32.72L31.424 33.68H33.648L33.408 32.72C33.2693 32.1973 33.1253 31.6427 32.976 31.056C32.8373 30.4693 32.6987 29.904 32.56 29.36H32.496C32.368 29.9147 32.2347 30.4853 32.096 31.072C31.968 31.648 31.8293 32.1973 31.68 32.72ZM27.904 38L31.168 27.568H34L37.264 38H34.768L34.128 35.52H30.944L30.304 38H27.904ZM40.7939 38.192C39.8125 38.192 39.0232 37.824 38.4259 37.088C37.8392 36.3413 37.5459 35.3227 37.5459 34.032C37.5459 33.168 37.7005 32.4267 38.0099 31.808C38.3299 31.1787 38.7405 30.6987 39.2419 30.368C39.7539 30.0373 40.2872 29.872 40.8419 29.872C41.2792 29.872 41.6472 29.9467 41.9459 30.096C42.2445 30.2453 42.5272 30.448 42.7939 30.704L42.6979 29.488V26.784H45.0499V38H43.1299L42.9699 37.216H42.9059C42.6285 37.4933 42.3032 37.728 41.9299 37.92C41.5565 38.1013 41.1779 38.192 40.7939 38.192ZM41.4019 36.272C41.6579 36.272 41.8872 36.2187 42.0899 36.112C42.3032 36.0053 42.5059 35.8187 42.6979 35.552V32.304C42.4952 32.112 42.2765 31.9787 42.0419 31.904C41.8179 31.8293 41.5992 31.792 41.3859 31.792C41.0125 31.792 40.6819 31.9733 40.3939 32.336C40.1059 32.688 39.9619 33.2427 39.9619 34C39.9619 34.7787 40.0845 35.3547 40.3299 35.728C40.5859 36.0907 40.9432 36.272 41.4019 36.272ZM49.7158 38.192C48.7344 38.192 47.9451 37.824 47.3478 37.088C46.7611 36.3413 46.4678 35.3227 46.4678 34.032C46.4678 33.168 46.6224 32.4267 46.9318 31.808C47.2518 31.1787 47.6624 30.6987 48.1638 30.368C48.6758 30.0373 49.2091 29.872 49.7638 29.872C50.2011 29.872 50.5691 29.9467 50.8678 30.096C51.1664 30.2453 51.4491 30.448 51.7158 30.704L51.6198 29.488V26.784H53.9718V38H52.0518L51.8918 37.216H51.8278C51.5504 37.4933 51.2251 37.728 50.8518 37.92C50.4784 38.1013 50.0998 38.192 49.7158 38.192ZM50.3238 36.272C50.5798 36.272 50.8091 36.2187 51.0118 36.112C51.2251 36.0053 51.4278 35.8187 51.6198 35.552V32.304C51.4171 32.112 51.1984 31.9787 50.9638 31.904C50.7398 31.8293 50.5211 31.792 50.3078 31.792C49.9344 31.792 49.6038 31.9733 49.3158 32.336C49.0278 32.688 48.8838 33.2427 48.8838 34C48.8838 34.7787 49.0064 35.3547 49.2518 35.728C49.5078 36.0907 49.8651 36.272 50.3238 36.272ZM62.1348 38.192C61.4521 38.192 60.7694 38.064 60.0868 37.808C59.4148 37.552 58.8121 37.1787 58.2788 36.688L59.6228 35.072C59.9961 35.392 60.4121 35.6533 60.8708 35.856C61.3294 36.0587 61.7721 36.16 62.1988 36.16C62.6894 36.16 63.0521 36.0693 63.2868 35.888C63.5321 35.7067 63.6548 35.4613 63.6548 35.152C63.6548 34.8213 63.5161 34.5813 63.2388 34.432C62.9721 34.272 62.6094 34.096 62.1508 33.904L60.7908 33.328C60.4388 33.1787 60.1028 32.9813 59.7828 32.736C59.4628 32.48 59.2014 32.1653 58.9988 31.792C58.7961 31.4187 58.6948 30.9813 58.6948 30.48C58.6948 29.904 58.8494 29.3813 59.1588 28.912C59.4788 28.4427 59.9161 28.0693 60.4708 27.792C61.0361 27.5147 61.6814 27.376 62.4068 27.376C63.0041 27.376 63.6014 27.4933 64.1988 27.728C64.7961 27.9627 65.3188 28.304 65.7668 28.752L64.5668 30.24C64.2254 29.9733 63.8841 29.7707 63.5428 29.632C63.2014 29.4827 62.8228 29.408 62.4068 29.408C62.0014 29.408 61.6761 29.4933 61.4308 29.664C61.1961 29.824 61.0788 30.0533 61.0788 30.352C61.0788 30.672 61.2281 30.912 61.5268 31.072C61.8361 31.232 62.2148 31.4027 62.6628 31.584L64.0068 32.128C64.6361 32.384 65.1374 32.736 65.5108 33.184C65.8841 33.632 66.0708 34.224 66.0708 34.96C66.0708 35.536 65.9161 36.0693 65.6068 36.56C65.2974 37.0507 64.8494 37.4453 64.2628 37.744C63.6761 38.0427 62.9668 38.192 62.1348 38.192ZM67.3994 38V26.784H69.7514V29.536L69.6394 30.96C69.938 30.6933 70.2847 30.448 70.6794 30.224C71.0847 29.9893 71.554 29.872 72.0874 29.872C72.9514 29.872 73.5754 30.16 73.9594 30.736C74.354 31.3013 74.5514 32.08 74.5514 33.072V38H72.1994V33.376C72.1994 32.8 72.1194 32.4053 71.9594 32.192C71.81 31.9787 71.5647 31.872 71.2234 31.872C70.9247 31.872 70.6687 31.9413 70.4554 32.08C70.242 32.208 70.0074 32.3947 69.7514 32.64V38H67.3994ZM79.698 38.192C79.026 38.192 78.3913 38.032 77.794 37.712C77.2073 37.3813 76.7327 36.9067 76.37 36.288C76.0073 35.6587 75.826 34.9067 75.826 34.032C75.826 33.1467 76.0073 32.3947 76.37 31.776C76.7327 31.1573 77.2073 30.688 77.794 30.368C78.3913 30.0373 79.026 29.872 79.698 29.872C80.37 29.872 80.9993 30.0373 81.586 30.368C82.1727 30.688 82.6473 31.1573 83.01 31.776C83.3727 32.3947 83.554 33.1467 83.554 34.032C83.554 34.9067 83.3727 35.6587 83.01 36.288C82.6473 36.9067 82.1727 37.3813 81.586 37.712C80.9993 38.032 80.37 38.192 79.698 38.192ZM79.698 36.288C80.178 36.288 80.5407 36.0853 80.786 35.68C81.0313 35.264 81.154 34.7147 81.154 34.032C81.154 33.3387 81.0313 32.7893 80.786 32.384C80.5407 31.9787 80.178 31.776 79.698 31.776C79.2073 31.776 78.8393 31.9787 78.594 32.384C78.3593 32.7893 78.242 33.3387 78.242 34.032C78.242 34.7147 78.3593 35.264 78.594 35.68C78.8393 36.0853 79.2073 36.288 79.698 36.288ZM84.915 40.944V30.064H86.835L86.995 30.848H87.059C87.3683 30.5707 87.715 30.3413 88.099 30.16C88.4937 29.968 88.899 29.872 89.315 29.872C90.275 29.872 91.0323 30.24 91.587 30.976C92.1417 31.7013 92.419 32.6773 92.419 33.904C92.419 34.8107 92.259 35.584 91.939 36.224C91.619 36.864 91.203 37.3547 90.691 37.696C90.1897 38.0267 89.651 38.192 89.075 38.192C88.7337 38.192 88.403 38.1227 88.083 37.984C87.763 37.8347 87.4643 37.6267 87.187 37.36L87.267 38.624V40.944H84.915ZM88.531 36.272C88.9363 36.272 89.283 36.0853 89.571 35.712C89.859 35.3387 90.003 34.7467 90.003 33.936C90.003 32.5067 89.5443 31.792 88.627 31.792C88.1683 31.792 87.715 32.032 87.267 32.512V35.76C87.4803 35.952 87.6937 36.0853 87.907 36.16C88.1203 36.2347 88.3283 36.272 88.531 36.272Z" fill="white"/>
</g>
<defs>
<filter id="filter0_dd_359_1179" x="0" y="0" width="351" height="72" filterUnits="userSpaceOnUse" color-interpolation-filters="sRGB">
<feFlood flood-opacity="0" result="BackgroundImageFix"/>
<feColorMatrix in="SourceAlpha" type="matrix" values="0 0 0 0 0 0 0 0 0 0 0 0 0 0 0 0 0 0 127 0" result="hardAlpha"/>
<feOffset dy="4"/>
<feGaussianBlur stdDeviation="4"/>
<feColorMatrix type="matrix" values="0 0 0 0 0.376471 0 0 0 0 0.380392 0 0 0 0 0.439216 0 0 0 0.16 0"/>
<feBlend mode="normal" in2="BackgroundImageFix" result="effect1_dropShadow_359_1179"/>
<feColorMatrix in="SourceAlpha" type="matrix" values="0 0 0 0 0 0 0 0 0 0 0 0 0 0 0 0 0 0 127 0" result="hardAlpha"/>
<feOffset/>
<feGaussianBlur stdDeviation="1"/>
<feColorMatrix type="matrix" values="0 0 0 0 0.156863 0 0 0 0 0.160784 0 0 0 0 0.239216 0 0 0 0.04 0"/>
<feBlend mode="normal" in2="effect1_dropShadow_359_1179" result="effect2_dropShadow_359_1179"/>
<feBlend mode="normal" in="SourceGraphic" in2="effect2_dropShadow_359_1179" result="shape"/>
</filter>
<linearGradient id="paint0_linear_359_1179" x1="8" y1="32" x2="343" y2="32" gradientUnits="userSpaceOnUse">
<stop stop-color="#FC14CB"/>
<stop offset="1" stop-color="#4F52FE"/>
</linearGradient>
</defs>
</svg>
