<svg width="18" height="18" viewBox="0 0 18 18" fill="none" xmlns="http://www.w3.org/2000/svg">
<rect x="0.5" y="0.5" width="17" height="17" rx="8.5" fill="white"/>
<rect x="0.5" y="0.5" width="17" height="17" rx="8.5" stroke="#FAFAFA"/>
<g clip-path="url(#clip0_27_123)">
<path d="M9.00066 1.33594C7.48433 1.33594 6.00206 1.78558 4.74128 2.628C3.48051 3.47043 2.49785 4.6678 1.91758 6.0687C1.33731 7.4696 1.18548 9.01111 1.4813 10.4983C1.77712 11.9855 2.5073 13.3516 3.5795 14.4238C4.65171 15.496 6.01777 16.2261 7.50496 16.522C8.99215 16.8178 10.5337 16.666 11.9346 16.0857C13.3355 15.5054 14.5328 14.5228 15.3753 13.262C16.2177 12.0012 16.6673 10.5189 16.6673 9.0026C16.665 6.96998 15.8566 5.02127 14.4193 3.58399C12.982 2.1467 11.0333 1.33823 9.00066 1.33594ZM12.334 9.66927H9.66732V12.3359C9.66732 12.5127 9.59708 12.6823 9.47206 12.8073C9.34704 12.9324 9.17747 13.0026 9.00066 13.0026C8.82384 13.0026 8.65427 12.9324 8.52925 12.8073C8.40423 12.6823 8.33399 12.5127 8.33399 12.3359V9.66927H5.66732C5.49051 9.66927 5.32094 9.59903 5.19592 9.47401C5.07089 9.34898 5.00065 9.17942 5.00065 9.0026C5.00065 8.82579 5.07089 8.65622 5.19592 8.5312C5.32094 8.40618 5.49051 8.33594 5.66732 8.33594H8.33399V5.66927C8.33399 5.49246 8.40423 5.32289 8.52925 5.19787C8.65427 5.07284 8.82384 5.0026 9.00066 5.0026C9.17747 5.0026 9.34704 5.07284 9.47206 5.19787C9.59708 5.32289 9.66732 5.49246 9.66732 5.66927V8.33594H12.334C12.5108 8.33594 12.6804 8.40618 12.8054 8.5312C12.9304 8.65622 13.0007 8.82579 13.0007 9.0026C13.0007 9.17942 12.9304 9.34898 12.8054 9.47401C12.6804 9.59903 12.5108 9.66927 12.334 9.66927Z" fill="url(#paint0_linear_27_123)"/>
</g>
<defs>
<linearGradient id="paint0_linear_27_123" x1="9.00065" y1="1.33594" x2="9.00065" y2="16.6693" gradientUnits="userSpaceOnUse">
<stop stop-color="#FC14CB"/>
<stop offset="1" stop-color="#4F52FE"/>
</linearGradient>
<clipPath id="clip0_27_123">
<rect width="16" height="16" fill="white" transform="translate(1 1)"/>
</clipPath>
</defs>
</svg>
