<svg width="34" height="32" viewBox="0 0 34 32" fill="none" xmlns="http://www.w3.org/2000/svg">
<rect x="0.0100098" width="34" height="32" rx="8" fill="#EFEFEF"/>
<g clip-path="url(#clip0_45_1006)">
<path fill-rule="evenodd" clip-rule="evenodd" d="M24.3434 21.8334H15.0101C14.7434 21.8334 14.5101 21.6001 14.5101 21.3334V20.8334C14.5101 19.0001 16.0101 17.5001 17.8434 17.5001H21.5101C23.3434 17.5001 24.8434 19.0001 24.8434 20.8334V21.3334C24.8434 21.6001 24.6101 21.8334 24.3434 21.8334ZM19.6768 16.5001C17.9434 16.5001 16.5101 15.0667 16.5101 13.3334C16.5101 11.6001 17.9434 10.1667 19.6768 10.1667C21.4101 10.1667 22.8434 11.6001 22.8434 13.3334C22.8434 15.0667 21.4101 16.5001 19.6768 16.5001ZM14.3434 16.8334H12.8434V18.3334C12.8434 18.6001 12.6101 18.8334 12.3434 18.8334H11.6768C11.4101 18.8334 11.1768 18.6001 11.1768 18.3334V16.8334H9.67676C9.41009 16.8334 9.17676 16.6001 9.17676 16.3334V15.6667C9.17676 15.4001 9.41009 15.1667 9.67676 15.1667H11.1768V13.6667C11.1768 13.4001 11.4101 13.1667 11.6768 13.1667H12.3434C12.6101 13.1667 12.8434 13.4001 12.8434 13.6667V15.1667H14.3434C14.6101 15.1667 14.8434 15.4001 14.8434 15.6667V16.3334C14.8434 16.6001 14.6101 16.8334 14.3434 16.8334Z" fill="black"/>
</g>
<defs>
<clipPath id="clip0_45_1006">
<rect width="16" height="16" fill="white" transform="translate(9.01001 8)"/>
</clipPath>
</defs>
</svg>
