<svg width="24" height="24" viewBox="0 0 24 24" fill="none" xmlns="http://www.w3.org/2000/svg">
<path d="M15.3202 20.655C15.5434 20.8782 15.8275 21 16.1623 21C16.832 21 17.3698 20.4724 17.3698 19.8027C17.3698 19.4679 17.2277 19.1635 16.9944 18.9301L9.89177 11.9899L16.9944 5.0699C17.2277 4.83653 17.3698 4.52198 17.3698 4.19729C17.3698 3.52762 16.832 3 16.1623 3C15.8275 3 15.5434 3.12176 15.3202 3.34498L7.42616 11.0564C7.14205 11.3202 7.01015 11.6449 7 12C7 12.3551 7.14205 12.6595 7.42616 12.9335L15.3202 20.655Z" fill="white"/>
</svg>
