<svg width="44" height="44" viewBox="0 0 44 44" fill="none" xmlns="http://www.w3.org/2000/svg">
<rect width="44" height="44" rx="22" fill="url(#paint0_linear_1_1190)"/>
<path d="M12 22V25.45C12 28.299 12.698 29.455 13.606 30.394C14.546 31.303 15.704 32.002 18.552 32.002H25.448C28.296 32.002 29.454 31.302 30.394 30.394C31.302 29.455 32 28.3 32 25.45V18.552C32 15.703 31.302 14.546 30.394 13.607C29.454 12.7 28.296 12 25.448 12H18.552C15.704 12 14.546 12.699 13.606 13.607C12.698 14.547 12 15.703 12 18.552V22Z" stroke="white" stroke-width="2" stroke-linecap="round" stroke-linejoin="round"/>
<path d="M16.5449 22.001H27.4549" stroke="white" stroke-width="2" stroke-linecap="round" stroke-linejoin="round"/>
<path d="M22.0029 16.545V27.455" stroke="white" stroke-width="2" stroke-linecap="round" stroke-linejoin="round"/>
<defs>
<linearGradient id="paint0_linear_1_1190" x1="22" y1="0" x2="22" y2="44" gradientUnits="userSpaceOnUse">
<stop offset="1" stop-color="#10B981"/>
</linearGradient>
</defs>
</svg>
