<svg width="24" height="24" viewBox="0 0 24 24" fill="none" xmlns="http://www.w3.org/2000/svg">
<g clip-path="url(#clip0_27_479)">
<path d="M12.003 2.00098C13.303 1.95924 14.5981 2.17924 15.8115 2.64792C17.0248 3.11661 18.1315 3.8244 19.0659 4.72925C20.0003 5.63411 20.7432 6.71755 21.2506 7.91521C21.758 9.11286 22.0194 10.4003 22.0194 11.701C22.0194 13.0017 21.758 14.2891 21.2506 15.4868C20.7432 16.6844 20.0003 17.7679 19.0659 18.6727C18.1315 19.5776 17.0248 20.2854 15.8115 20.754C14.5981 21.2227 13.303 21.4427 12.003 21.401C11.0251 21.4037 10.0513 21.2745 9.10796 21.017C8.93097 20.9687 8.74274 20.9828 8.57496 21.057L6.59096 21.933C6.47099 21.9857 6.33992 22.0082 6.20923 21.9985C6.07854 21.9888 5.95223 21.9472 5.84137 21.8773C5.73052 21.8074 5.6385 21.7114 5.5734 21.5977C5.50829 21.4839 5.47209 21.356 5.46796 21.225L5.41396 19.445C5.40945 19.3369 5.38322 19.2308 5.33683 19.133C5.29045 19.0353 5.22485 18.9478 5.14396 18.876C4.14013 17.9723 3.34075 16.8649 2.79926 15.6275C2.25776 14.3902 1.98662 13.0515 2.00396 11.701C1.99636 10.3995 2.25209 9.10999 2.75579 7.90993C3.25948 6.70987 4.00071 5.6241 4.9349 4.71794C5.86909 3.81178 6.97693 3.10395 8.19177 2.63703C9.4066 2.17011 10.7023 1.95376 12.003 2.00098Z" stroke="black" stroke-width="1.739" stroke-miterlimit="10"/>
<path fill-rule="evenodd" clip-rule="evenodd" d="M17.79 10.1322C17.8735 10.0011 17.908 9.84464 17.8873 9.69054C17.8667 9.53645 17.7922 9.39462 17.677 9.29013C17.5619 9.18565 17.4135 9.12523 17.2582 9.11958C17.1028 9.11392 16.9504 9.16338 16.828 9.25922L14.272 11.3092C14.163 11.3918 14.03 11.4366 13.8933 11.437C13.7566 11.4373 13.6234 11.3932 13.514 11.3112L11.06 9.47022C10.8859 9.33988 10.6867 9.24698 10.4749 9.19737C10.2632 9.14776 10.0434 9.14252 9.82957 9.18197C9.61569 9.22142 9.41229 9.30471 9.23217 9.4266C9.05206 9.54849 8.89911 9.70634 8.78297 9.89022L6.21597 13.8702C6.13169 14.0012 6.09655 14.1579 6.11679 14.3124C6.13703 14.4668 6.21134 14.6091 6.32654 14.714C6.44173 14.8189 6.59036 14.8796 6.74604 14.8853C6.90173 14.891 7.0544 14.8414 7.17697 14.7452L9.73297 12.6962C9.84208 12.6134 9.97518 12.5685 10.1121 12.5681C10.2491 12.5677 10.3824 12.612 10.492 12.6942L12.944 14.5342C13.1181 14.6647 13.3174 14.7578 13.5292 14.8075C13.7411 14.8572 13.9609 14.8625 14.1749 14.823C14.3889 14.7835 14.5924 14.7002 14.7727 14.5782C14.9529 14.4562 15.1058 14.2982 15.222 14.1142L17.79 10.1322Z" fill="black"/>
</g>
<defs>
<clipPath id="clip0_27_479">
<rect width="24" height="24" fill="white"/>
</clipPath>
</defs>
</svg>
