<svg width="24" height="24" viewBox="0 0 24 24" fill="none" xmlns="http://www.w3.org/2000/svg">
<path fill-rule="evenodd" clip-rule="evenodd" d="M16.6309 4H7.36915H7.36911C6.34229 3.99997 5.48605 3.99994 4.80631 4.09133C4.08883 4.18779 3.44106 4.39999 2.92053 4.92053C2.39999 5.44106 2.18779 6.08883 2.09133 6.80631C1.99994 7.48605 1.99997 8.34229 2 9.36911V9.36915V14.0594V14.0595C1.99997 15.0863 1.99994 15.9425 2.09133 16.6223C2.18779 17.3397 2.39999 17.9875 2.92053 18.5081C3.44106 19.0286 4.08883 19.2408 4.80631 19.3372C5.48605 19.4286 6.34229 19.4286 7.3691 19.4286H7.36915H16.6308H16.6309C17.6577 19.4286 18.514 19.4286 19.1937 19.3372C19.9112 19.2408 20.5589 19.0286 21.0795 18.5081C21.6 17.9875 21.8122 17.3397 21.9087 16.6223C22.0001 15.9425 22 15.0863 22 14.0594V9.36915C22 8.34232 22.0001 7.48606 21.9087 6.80631C21.8122 6.08883 21.6 5.44106 21.0795 4.92053C20.5589 4.39999 19.9112 4.18779 19.1937 4.09133C18.5139 3.99994 17.6577 3.99997 16.6309 4H16.6309ZM4.13271 6.13271C4.28164 5.98378 4.50735 5.86123 5.03474 5.79033C5.58678 5.71611 6.32685 5.71429 7.42857 5.71429H16.5714C17.6732 5.71429 18.4132 5.71611 18.9653 5.79033C19.4927 5.86123 19.7184 5.98378 19.8673 6.13271C20.0162 6.28164 20.1388 6.50735 20.2097 7.03474C20.2382 7.24717 20.2561 7.48745 20.2672 7.76546L12.6394 11.5794C12.2372 11.7805 11.7638 11.7805 11.3616 11.5794L3.73281 7.76496C3.74395 7.48716 3.76179 7.24704 3.79033 7.03474C3.86123 6.50735 3.98377 6.28164 4.13271 6.13271ZM3.71429 9.67233V14C3.71429 15.1017 3.71611 15.8418 3.79033 16.3938C3.86123 16.9212 3.98377 17.1469 4.13271 17.2959C4.28164 17.4448 4.50735 17.5673 5.03474 17.6382C5.58678 17.7125 6.32685 17.7143 7.42857 17.7143H16.5714C17.6732 17.7143 18.4132 17.7125 18.9653 17.6382C19.4927 17.5673 19.7184 17.4448 19.8673 17.2959C20.0162 17.1469 20.1388 16.9212 20.2097 16.3938C20.2839 15.8418 20.2857 15.1017 20.2857 14V9.67284L13.406 13.1127C12.5212 13.5551 11.4798 13.5551 10.595 13.1127L3.71429 9.67233Z" fill="white"/>
</svg>
