<svg width="24" height="24" viewBox="0 0 24 24" fill="none" xmlns="http://www.w3.org/2000/svg">
<path fill-rule="evenodd" clip-rule="evenodd" d="M4.08939 4.1135L20.8865 20.9106L22 19.7971L19.6082 17.4053C20.2549 16.7753 20.7927 16.1668 21.1983 15.6743C21.2219 15.6457 21.2459 15.6167 21.2702 15.5875L21.2703 15.5874C21.6062 15.1831 21.9891 14.7224 21.9891 14.0549C21.9891 13.3875 21.6062 12.9268 21.2703 12.5225L21.2702 12.5224C21.2459 12.4932 21.2219 12.4642 21.1983 12.4356C20.4294 11.502 19.1857 10.1513 17.6246 9.02818C16.0698 7.90956 14.133 6.96867 11.9946 6.96867C11.1496 6.96867 10.3361 7.11558 9.5652 7.36231L5.20289 3L4.08939 4.1135ZM10.857 8.65407L12.059 9.85615C14.3273 9.89016 16.1596 11.7225 16.1936 13.9907L18.4946 16.2917C19.0946 15.7085 19.5987 15.1395 19.9828 14.6732C20.201 14.4083 20.3084 14.2746 20.3728 14.1667C20.4147 14.0964 20.4145 14.0765 20.4144 14.058L20.4144 14.0549L20.4144 14.0519C20.4145 14.0334 20.4147 14.0135 20.3728 13.9432C20.3084 13.8353 20.201 13.7016 19.9828 13.4367C19.2608 12.5602 18.115 11.3209 16.705 10.3065C15.2887 9.28754 13.673 8.5434 11.9946 8.5434C11.6116 8.5434 11.2318 8.58215 10.857 8.65407ZM14.773 12.5701C14.4793 12.0218 14.028 11.5705 13.4797 11.2768L14.773 12.5701ZM7.8181 9.94218C7.63725 10.0588 7.45919 10.1805 7.28417 10.3065C5.87415 11.3209 4.72831 12.5602 4.00637 13.4367C3.78818 13.7016 3.68074 13.8353 3.61636 13.9432C3.57446 14.0134 3.57459 14.0334 3.57472 14.0519L3.57473 14.0549L3.57472 14.058C3.57459 14.0765 3.57446 14.0964 3.61636 14.1667C3.68074 14.2746 3.78818 14.4083 4.00637 14.6732C4.72831 15.5497 5.87415 16.789 7.28417 17.8034C8.70039 18.8224 10.3161 19.5665 11.9946 19.5665C13.436 19.5665 14.8311 19.0177 16.0933 18.2174L17.2311 19.3552C15.7481 20.3495 13.9561 21.1412 11.9946 21.1412C9.85618 21.1412 7.91932 20.2003 6.3645 19.0817C4.80346 17.9586 3.55976 16.6079 2.79086 15.6743C2.7672 15.6456 2.74312 15.6166 2.7188 15.5874C2.3829 15.1831 2 14.7224 2 14.0549C2 13.3875 2.3829 12.9268 2.7188 12.5225L2.71888 12.5224C2.74317 12.4932 2.76722 12.4643 2.79086 12.4356C3.55976 11.502 4.80346 10.1513 6.3645 9.02818C6.46863 8.95327 6.57448 8.87915 6.68198 8.80605L7.8181 9.94218ZM9.25805 12.4953C8.99543 12.9551 8.84536 13.4875 8.84536 14.0549C8.84536 15.7943 10.2554 17.2044 11.9948 17.2044C12.5623 17.2044 13.0947 17.0543 13.5545 16.7917L14.317 17.5542C13.6519 17.9965 12.8534 18.2542 11.9948 18.2542C9.67562 18.2542 7.79554 16.3741 7.79554 14.0549C7.79554 13.1963 8.05324 12.3979 8.49552 11.7327L9.25805 12.4953Z" fill="#898A83" fill-opacity="0.4"/>
</svg>
