<svg width="25" height="24" viewBox="0 0 25 24" fill="none" xmlns="http://www.w3.org/2000/svg">
<g clip-path="url(#clip0_170_1594)">
<path d="M17.292 3.90397C18.6065 3.97664 19.8389 4.56587 20.7208 5.54328C21.6027 6.52068 22.0625 7.80701 22 9.12197C22 12.194 19.348 14.081 16.803 16.344C14.291 18.587 12.938 19.813 12.5 20.096C12.023 19.787 10.357 18.273 8.19704 16.344C5.64104 14.072 3.00004 12.167 3.00004 9.12197C2.93761 7.80701 3.39743 6.52068 4.2793 5.54328C5.16117 4.56587 6.39361 3.97664 7.70804 3.90397C8.43619 3.8819 9.1576 4.04915 9.80176 4.38937C10.4459 4.72959 10.9908 5.23113 11.383 5.84497C12.223 7.01997 12.363 7.60797 12.503 7.60797C12.643 7.60797 12.781 7.01997 13.613 5.84197C14.0031 5.22529 14.5482 4.72176 15.1937 4.38169C15.8393 4.04161 16.5629 3.87688 17.292 3.90397ZM17.292 1.90397C16.384 1.8749 15.481 2.05106 14.6505 2.41932C13.8199 2.78759 13.0832 3.33848 12.495 4.03097C11.9074 3.3405 11.1722 2.79088 10.3436 2.42272C9.51502 2.05457 8.61433 1.87729 7.70804 1.90397C5.86291 1.97612 4.12142 2.77596 2.86438 4.12857C1.60734 5.48118 0.937038 7.27651 1.00004 9.12197C1.00004 12.732 3.55004 14.949 6.01504 17.092C6.29804 17.338 6.58404 17.586 6.86804 17.839L7.89504 18.757C9.01508 19.8227 10.1893 20.8301 11.413 21.775C11.7368 21.9846 12.1143 22.0962 12.5 22.0962C12.8858 22.0962 13.2633 21.9846 13.587 21.775C14.8497 20.8012 16.0601 19.7614 17.213 18.66L18.135 17.836C18.428 17.576 18.725 17.317 19.02 17.062C21.354 15.037 24 12.742 24 9.12197C24.063 7.27651 23.3927 5.48118 22.1357 4.12857C20.8787 2.77596 19.1372 1.97612 17.292 1.90397Z" fill="white"/>
</g>
<defs>
<clipPath id="clip0_170_1594">
<rect width="24" height="24" fill="white" transform="translate(0.5)"/>
</clipPath>
</defs>
</svg>
