<svg width="24" height="24" viewBox="0 0 24 24" fill="none" xmlns="http://www.w3.org/2000/svg">
<path fill-rule="evenodd" clip-rule="evenodd" d="M7.10256 6.87179C7.10256 4.18118 9.28374 2 11.9744 2C14.665 2 16.8462 4.18118 16.8462 6.87179V7.89744C16.8462 7.98783 16.8306 8.07459 16.8019 8.15516C17.4314 8.15908 17.975 8.1746 18.4302 8.23581C19.0741 8.32238 19.6555 8.51281 20.1226 8.97996C20.5898 9.44711 20.7802 10.0284 20.8668 10.6723C20.9488 11.2824 20.9488 12.0508 20.9487 12.9723V12.9723V15.1332C20.9487 16.5359 20.9488 17.6664 20.8292 18.5556C20.7051 19.4788 20.4396 20.2561 19.8222 20.8735C19.2049 21.4908 18.4276 21.7564 17.5044 21.8805C16.6152 22 15.4846 22 14.0819 22H9.8668C8.46415 22 7.33356 22 6.44436 21.8805C5.52117 21.7564 4.74387 21.4908 4.12652 20.8735C3.50917 20.2561 3.24363 19.4788 3.11951 18.5556C2.99997 17.6665 2.99998 16.5359 3 15.1333V15.1332V12.9723V12.9723C2.99997 12.0508 2.99995 11.2824 3.08196 10.6723C3.16853 10.0284 3.35896 9.44711 3.82611 8.97996C4.29326 8.51281 4.87459 8.32238 5.51849 8.23581C5.97377 8.1746 6.51728 8.15908 7.1468 8.15516C7.11816 8.07459 7.10256 7.98783 7.10256 7.89744V6.87179ZM15.3077 7.89744C15.3077 7.98734 15.3231 8.07365 15.3515 8.15385H8.59726C8.6256 8.07365 8.64103 7.98734 8.64103 7.89744V6.87179C8.64103 5.03085 10.1334 3.53846 11.9744 3.53846C13.8153 3.53846 15.3077 5.03085 15.3077 6.87179V7.89744ZM5.72348 9.76055C5.25019 9.82418 5.04763 9.93416 4.91397 10.0678C4.78031 10.2015 4.67034 10.404 4.60671 10.8773C4.5401 11.3727 4.53846 12.0369 4.53846 13.0256V15.0769C4.53846 16.5491 4.5401 17.5759 4.64426 18.3506C4.74544 19.1032 4.93051 19.5018 5.21437 19.7856C5.49823 20.0695 5.89677 20.2546 6.64936 20.3557C7.42408 20.4599 8.45086 20.4615 9.92308 20.4615H14.0256C15.4979 20.4615 16.5246 20.4599 17.2994 20.3557C18.052 20.2546 18.4505 20.0695 18.7344 19.7856C19.0182 19.5018 19.2033 19.1032 19.3045 18.3506C19.4086 17.5759 19.4103 16.5491 19.4103 15.0769V13.0256C19.4103 12.0369 19.4086 11.3727 19.342 10.8773C19.2784 10.404 19.1684 10.2015 19.0348 10.0678C18.9011 9.93416 18.6985 9.82418 18.2252 9.76055C17.7298 9.69394 17.0657 9.69231 16.0769 9.69231H7.8718C6.88307 9.69231 6.2189 9.69394 5.72348 9.76055ZM11.9744 17.1282C13.1073 17.1282 14.0256 16.2098 14.0256 15.0769C14.0256 13.944 13.1073 13.0256 11.9744 13.0256C10.8415 13.0256 9.92308 13.944 9.92308 15.0769C9.92308 16.2098 10.8415 17.1282 11.9744 17.1282Z" fill="#898A83" fill-opacity="0.4"/>
</svg>
