<svg width="351" height="72" viewBox="0 0 351 72" fill="none" xmlns="http://www.w3.org/2000/svg">
<g filter="url(#filter0_dd_6_895)">
<rect x="8" y="4" width="335" height="56" rx="16" fill="url(#paint0_linear_6_895)"/>
<path fill-rule="evenodd" clip-rule="evenodd" d="M311 24L309.59 25.41L315.17 31H303V33H315.17L309.59 38.59L311 40L319 32L311 24Z" fill="white"/>
<path d="M32.416 38.192C31.7333 38.192 31.0507 38.064 30.368 37.808C29.696 37.552 29.0933 37.1787 28.56 36.688L29.904 35.072C30.2773 35.392 30.6933 35.6533 31.152 35.856C31.6107 36.0587 32.0533 36.16 32.48 36.16C32.9707 36.16 33.3333 36.0693 33.568 35.888C33.8133 35.7067 33.936 35.4613 33.936 35.152C33.936 34.8213 33.7973 34.5813 33.52 34.432C33.2533 34.272 32.8907 34.096 32.432 33.904L31.072 33.328C30.72 33.1787 30.384 32.9813 30.064 32.736C29.744 32.48 29.4827 32.1653 29.28 31.792C29.0773 31.4187 28.976 30.9813 28.976 30.48C28.976 29.904 29.1307 29.3813 29.44 28.912C29.76 28.4427 30.1973 28.0693 30.752 27.792C31.3173 27.5147 31.9627 27.376 32.688 27.376C33.2853 27.376 33.8827 27.4933 34.48 27.728C35.0773 27.9627 35.6 28.304 36.048 28.752L34.848 30.24C34.5067 29.9733 34.1653 29.7707 33.824 29.632C33.4827 29.4827 33.104 29.408 32.688 29.408C32.2827 29.408 31.9573 29.4933 31.712 29.664C31.4773 29.824 31.36 30.0533 31.36 30.352C31.36 30.672 31.5093 30.912 31.808 31.072C32.1173 31.232 32.496 31.4027 32.944 31.584L34.288 32.128C34.9173 32.384 35.4187 32.736 35.792 33.184C36.1653 33.632 36.352 34.224 36.352 34.96C36.352 35.536 36.1973 36.0693 35.888 36.56C35.5787 37.0507 35.1307 37.4453 34.544 37.744C33.9573 38.0427 33.248 38.192 32.416 38.192ZM37.6806 38V30.064H40.0326V38H37.6806ZM38.8486 28.896C38.454 28.896 38.134 28.784 37.8886 28.56C37.6433 28.336 37.5206 28.0373 37.5206 27.664C37.5206 27.2907 37.6433 26.992 37.8886 26.768C38.134 26.544 38.454 26.432 38.8486 26.432C39.2433 26.432 39.5633 26.544 39.8086 26.768C40.054 26.992 40.1766 27.2907 40.1766 27.664C40.1766 28.0373 40.054 28.336 39.8086 28.56C39.5633 28.784 39.2433 28.896 38.8486 28.896ZM44.6845 41.376C44.0658 41.376 43.5058 41.3067 43.0045 41.168C42.5032 41.0293 42.1032 40.8107 41.8045 40.512C41.5058 40.2133 41.3565 39.8293 41.3565 39.36C41.3565 38.72 41.7352 38.1867 42.4925 37.76V37.696C42.2898 37.5573 42.1138 37.3813 41.9645 37.168C41.8258 36.9547 41.7565 36.6827 41.7565 36.352C41.7565 36.064 41.8418 35.7867 42.0125 35.52C42.1832 35.2533 42.3965 35.0347 42.6525 34.864V34.8C42.3752 34.608 42.1245 34.3307 41.9005 33.968C41.6872 33.6053 41.5805 33.1947 41.5805 32.736C41.5805 32.096 41.7352 31.568 42.0445 31.152C42.3538 30.7253 42.7592 30.4053 43.2605 30.192C43.7618 29.9787 44.2952 29.872 44.8605 29.872C45.3298 29.872 45.7405 29.936 46.0925 30.064H48.9885V31.776H47.7245C47.7992 31.8933 47.8578 32.0427 47.9005 32.224C47.9538 32.4053 47.9805 32.6027 47.9805 32.816C47.9805 33.424 47.8418 33.9253 47.5645 34.32C47.2872 34.7147 46.9138 35.008 46.4445 35.2C45.9752 35.392 45.4472 35.488 44.8605 35.488C44.5512 35.488 44.2312 35.4347 43.9005 35.328C43.7085 35.488 43.6125 35.6853 43.6125 35.92C43.6125 36.1227 43.7032 36.272 43.8845 36.368C44.0658 36.464 44.3752 36.512 44.8125 36.512H46.0925C47.0738 36.512 47.8205 36.672 48.3325 36.992C48.8552 37.3013 49.1165 37.8133 49.1165 38.528C49.1165 39.072 48.9352 39.5573 48.5725 39.984C48.2098 40.4213 47.6978 40.7627 47.0365 41.008C46.3752 41.2533 45.5912 41.376 44.6845 41.376ZM44.8605 34.064C45.1698 34.064 45.4258 33.952 45.6285 33.728C45.8418 33.504 45.9485 33.1733 45.9485 32.736C45.9485 32.32 45.8418 32.0053 45.6285 31.792C45.4258 31.568 45.1698 31.456 44.8605 31.456C44.5512 31.456 44.2898 31.5627 44.0765 31.776C43.8738 31.9893 43.7725 32.3093 43.7725 32.736C43.7725 33.1733 43.8738 33.504 44.0765 33.728C44.2898 33.952 44.5512 34.064 44.8605 34.064ZM45.0525 39.904C45.5858 39.904 46.0232 39.808 46.3645 39.616C46.7058 39.424 46.8765 39.1947 46.8765 38.928C46.8765 38.6827 46.7698 38.5173 46.5565 38.432C46.3538 38.3467 46.0552 38.304 45.6605 38.304H44.8445C44.5778 38.304 44.3538 38.2933 44.1725 38.272C44.0018 38.2613 43.8525 38.24 43.7245 38.208C43.4365 38.464 43.2925 38.7253 43.2925 38.992C43.2925 39.2907 43.4525 39.5147 43.7725 39.664C44.1032 39.824 44.5298 39.904 45.0525 39.904ZM50.1494 38V30.064H52.0694L52.2294 31.072H52.2934C52.6347 30.752 53.008 30.4747 53.4134 30.24C53.8294 29.9947 54.304 29.872 54.8374 29.872C55.7014 29.872 56.3254 30.16 56.7094 30.736C57.104 31.3013 57.3014 32.08 57.3014 33.072V38H54.9494V33.376C54.9494 32.8 54.8694 32.4053 54.7094 32.192C54.56 31.9787 54.3147 31.872 53.9734 31.872C53.6747 31.872 53.4187 31.9413 53.2054 32.08C52.992 32.208 52.7574 32.3947 52.5014 32.64V38H50.1494ZM62.2008 38V27.568H64.5528V38H62.2008ZM66.5713 38V30.064H68.4913L68.6513 31.072H68.7153C69.0566 30.752 69.4299 30.4747 69.8353 30.24C70.2513 29.9947 70.7259 29.872 71.2593 29.872C72.1233 29.872 72.7473 30.16 73.1313 30.736C73.5259 31.3013 73.7233 32.08 73.7233 33.072V38H71.3713V33.376C71.3713 32.8 71.2913 32.4053 71.1313 32.192C70.9819 31.9787 70.7366 31.872 70.3953 31.872C70.0966 31.872 69.8406 31.9413 69.6273 32.08C69.4139 32.208 69.1793 32.3947 68.9233 32.64V38H66.5713Z" fill="white"/>
</g>
<defs>
<filter id="filter0_dd_6_895" x="0" y="0" width="351" height="72" filterUnits="userSpaceOnUse" color-interpolation-filters="sRGB">
<feFlood flood-opacity="0" result="BackgroundImageFix"/>
<feColorMatrix in="SourceAlpha" type="matrix" values="0 0 0 0 0 0 0 0 0 0 0 0 0 0 0 0 0 0 127 0" result="hardAlpha"/>
<feOffset dy="4"/>
<feGaussianBlur stdDeviation="4"/>
<feColorMatrix type="matrix" values="0 0 0 0 0.376471 0 0 0 0 0.380392 0 0 0 0 0.439216 0 0 0 0.16 0"/>
<feBlend mode="normal" in2="BackgroundImageFix" result="effect1_dropShadow_6_895"/>
<feColorMatrix in="SourceAlpha" type="matrix" values="0 0 0 0 0 0 0 0 0 0 0 0 0 0 0 0 0 0 127 0" result="hardAlpha"/>
<feOffset/>
<feGaussianBlur stdDeviation="1"/>
<feColorMatrix type="matrix" values="0 0 0 0 0.156863 0 0 0 0 0.160784 0 0 0 0 0.239216 0 0 0 0.04 0"/>
<feBlend mode="normal" in2="effect1_dropShadow_6_895" result="effect2_dropShadow_6_895"/>
<feBlend mode="normal" in="SourceGraphic" in2="effect2_dropShadow_6_895" result="shape"/>
</filter>
<linearGradient id="paint0_linear_6_895" x1="8" y1="32" x2="343" y2="32" gradientUnits="userSpaceOnUse">
<stop stop-color="#FC14CB"/>
<stop offset="1" stop-color="#4F52FE"/>
</linearGradient>
</defs>
</svg>
