<svg width="24" height="24" viewBox="0 0 24 24" fill="none" xmlns="http://www.w3.org/2000/svg">
<g clip-path="url(#clip0_170_920)">
<path d="M17.6811 1.5C19.0957 1.5 20.3181 2.4882 20.6145 3.87141L22.3754 12.0881C23.3138 12.359 24 13.2244 24 14.25V18.75C24 19.9926 22.9926 21 21.75 21H20.25V21.75C20.25 22.1642 19.9142 22.5 19.5 22.5C19.0858 22.5 18.75 22.1642 18.75 21.75V21H5.25V21.75C5.25 22.1642 4.91421 22.5 4.5 22.5C4.08579 22.5 3.75 22.1642 3.75 21.75V21H2.25C1.00736 21 0 19.9926 0 18.75V14.25C0 13.2244 0.686213 12.359 1.62456 12.0881L3.38553 3.87141C3.68193 2.4882 4.90432 1.5 6.31894 1.5H17.6811ZM21.75 13.5H2.25C1.83579 13.5 1.5 13.8358 1.5 14.25V18.75C1.5 19.1642 1.83579 19.5 2.25 19.5H21.75C22.1642 19.5 22.5 19.1642 22.5 18.75V14.25C22.5 13.8358 22.1642 13.5 21.75 13.5ZM6.75 14.25C7.99264 14.25 9 15.2574 9 16.5C9 17.7426 7.99264 18.75 6.75 18.75C5.50736 18.75 4.5 17.7426 4.5 16.5C4.5 15.2574 5.50736 14.25 6.75 14.25ZM17.25 14.25C18.4926 14.25 19.5 15.2574 19.5 16.5C19.5 17.7426 18.4926 18.75 17.25 18.75C16.0074 18.75 15 17.7426 15 16.5C15 15.2574 16.0074 14.25 17.25 14.25ZM6.75 15.75C6.33579 15.75 6 16.0858 6 16.5C6 16.9142 6.33579 17.25 6.75 17.25C7.16421 17.25 7.5 16.9142 7.5 16.5C7.5 16.0858 7.16421 15.75 6.75 15.75ZM17.25 15.75C16.8358 15.75 16.5 16.0858 16.5 16.5C16.5 16.9142 16.8358 17.25 17.25 17.25C17.6642 17.25 18 16.9142 18 16.5C18 16.0858 17.6642 15.75 17.25 15.75ZM17.6811 3H6.31894C5.61163 3 5.00043 3.4941 4.85223 4.18571L3.17775 12H20.8223L19.1478 4.18571C19.0083 3.53478 18.4587 3.05881 17.8048 3.00507L17.6811 3Z" fill="black"/>
</g>
<defs>
<clipPath id="clip0_170_920">
<rect width="24" height="24" fill="white"/>
</clipPath>
</defs>
</svg>
