<svg width="16" height="20" viewBox="0 0 16 20" fill="none" xmlns="http://www.w3.org/2000/svg">
<path d="M14.6666 8.33325C14.2064 8.33325 13.8333 8.70634 13.8333 9.16657V9.99993C13.8333 13.2214 11.2214 15.8333 8 15.8333C4.77859 15.8333 2.16664 13.2214 2.16664 9.99993V9.16661C2.16664 8.70638 1.79355 8.33329 1.33332 8.33329C0.873086 8.33329 0.5 8.70638 0.5 9.16661V9.99993C0.5 13.8601 3.41695 17.039 7.16668 17.4536V18.3333H5.49996C5.03973 18.3333 4.66664 18.7063 4.66664 19.1666C4.66664 19.6268 5.03973 19.9999 5.49996 19.9999H10.5C10.9602 19.9999 11.3333 19.6268 11.3333 19.1666C11.3333 18.7064 10.9602 18.3333 10.5 18.3333H8.83328V17.4536C12.583 17.039 15.5 13.8601 15.5 9.99993V9.16661C15.5 8.70638 15.1269 8.33325 14.6666 8.33325Z" fill="url(#paint0_linear_29_1274)"/>
<path d="M8 15C10.7611 15 13 12.7611 13 10V5C13 2.23895 10.7611 0 8 0C5.23895 0 3 2.23895 3 5V10C3 12.7611 5.23895 15 8 15ZM4.66668 5C4.66668 3.15941 6.15941 1.66668 8 1.66668C9.84059 1.66668 11.3333 3.15941 11.3333 5V10C11.3333 11.8406 9.84059 13.3333 8 13.3333C6.15941 13.3333 4.66668 11.8406 4.66668 10V5Z" fill="url(#paint1_linear_29_1274)"/>
<defs>
<linearGradient id="paint0_linear_29_1274" x1="7.99998" y1="8.33325" x2="7.99998" y2="19.9999" gradientUnits="userSpaceOnUse">
<stop stop-color="#FC14CB"/>
<stop offset="1" stop-color="#4F52FE"/>
</linearGradient>
<linearGradient id="paint1_linear_29_1274" x1="8" y1="0" x2="8" y2="15" gradientUnits="userSpaceOnUse">
<stop stop-color="#FC14CB"/>
<stop offset="1" stop-color="#4F52FE"/>
</linearGradient>
</defs>
</svg>
