<svg width="92" height="93" viewBox="0 0 92 93" fill="none" xmlns="http://www.w3.org/2000/svg">
<g filter="url(#filter0_d_28_759)">
<rect x="2.68335" y="42.6128" width="60.2638" height="61.966" rx="23" transform="rotate(-45 2.68335 42.6128)" fill="url(#paint0_linear_28_759)"/>
</g>
<path d="M46.8981 38.2148H44.8981V42.2148H40.8981V44.2148H44.8981V48.2148H46.8981V44.2148H50.8981V42.2148H46.8981V38.2148ZM45.8981 33.2148C40.3781 33.2148 35.8981 37.6948 35.8981 43.2148C35.8981 48.7348 40.3781 53.2148 45.8981 53.2148C51.4181 53.2148 55.8981 48.7348 55.8981 43.2148C55.8981 37.6948 51.4181 33.2148 45.8981 33.2148ZM45.8981 51.2148C41.4881 51.2148 37.8981 47.6248 37.8981 43.2148C37.8981 38.8048 41.4881 35.2148 45.8981 35.2148C50.3081 35.2148 53.8981 38.8048 53.8981 43.2148C53.8981 47.6248 50.3081 51.2148 45.8981 51.2148Z" fill="white"/>
<defs>
<filter id="filter0_d_28_759" x="0.210205" y="1.52686" width="91.3757" height="91.3755" filterUnits="userSpaceOnUse" color-interpolation-filters="sRGB">
<feFlood flood-opacity="0" result="BackgroundImageFix"/>
<feColorMatrix in="SourceAlpha" type="matrix" values="0 0 0 0 0 0 0 0 0 0 0 0 0 0 0 0 0 0 127 0" result="hardAlpha"/>
<feOffset dy="4"/>
<feGaussianBlur stdDeviation="6"/>
<feColorMatrix type="matrix" values="0 0 0 0 0 0 0 0 0 0 0 0 0 0 0 0 0 0 0.25 0"/>
<feBlend mode="normal" in2="BackgroundImageFix" result="effect1_dropShadow_28_759"/>
<feBlend mode="normal" in="SourceGraphic" in2="effect1_dropShadow_28_759" result="shape"/>
</filter>
<linearGradient id="paint0_linear_28_759" x1="32.8153" y1="42.6128" x2="32.8153" y2="104.579" gradientUnits="userSpaceOnUse">
<stop stop-color="#FC14CB"/>
<stop offset="1" stop-color="#4F52FE"/>
</linearGradient>
</defs>
</svg>
