<svg width="44" height="44" viewBox="0 0 44 44" fill="none" xmlns="http://www.w3.org/2000/svg">
<rect width="44" height="44" rx="22" fill="url(#paint0_linear_27_106)"/>
<path d="M26.792 13.9054C28.1065 13.9781 29.3389 14.5673 30.2208 15.5447C31.1027 16.5221 31.5625 17.8085 31.5 19.1234C31.5 22.1954 28.848 24.0824 26.303 26.3454C23.791 28.5884 22.438 29.8144 22 30.0974C21.523 29.7884 19.857 28.2744 17.697 26.3454C15.141 24.0734 12.5 22.1684 12.5 19.1234C12.4376 17.8085 12.8974 16.5221 13.7793 15.5447C14.6612 14.5673 15.8936 13.9781 17.208 13.9054C17.9362 13.8834 18.6576 14.0506 19.3018 14.3908C19.9459 14.7311 20.4908 15.2326 20.883 15.8464C21.723 17.0214 21.863 17.6094 22.003 17.6094C22.143 17.6094 22.281 17.0214 23.113 15.8434C23.5031 15.2268 24.0482 14.7232 24.6937 14.3831C25.3393 14.0431 26.0629 13.8783 26.792 13.9054ZM26.792 11.9054C25.884 11.8764 24.981 12.0525 24.1505 12.4208C23.3199 12.7891 22.5832 13.3399 21.995 14.0324C21.4074 13.342 20.6722 12.7923 19.8436 12.4242C19.015 12.056 18.1143 11.8788 17.208 11.9054C15.3629 11.9776 13.6214 12.7774 12.3644 14.13C11.1073 15.4826 10.437 17.278 10.5 19.1234C10.5 22.7334 13.05 24.9504 15.515 27.0934C15.798 27.3394 16.084 27.5874 16.368 27.8404L17.395 28.7584C18.5151 29.8242 19.6893 30.8315 20.913 31.7764C21.2368 31.9861 21.6143 32.0976 22 32.0976C22.3858 32.0976 22.7633 31.9861 23.087 31.7764C24.3497 30.8027 25.5601 29.7629 26.713 28.6614L27.635 27.8374C27.928 27.5774 28.225 27.3184 28.52 27.0634C30.854 25.0384 33.5 22.7434 33.5 19.1234C33.563 17.278 32.8927 15.4826 31.6357 14.13C30.3787 12.7774 28.6372 11.9776 26.792 11.9054Z" fill="white"/>
<defs>
<linearGradient id="paint0_linear_27_106" x1="22" y1="0" x2="22" y2="44" gradientUnits="userSpaceOnUse">
<stop stop-color="#FC14CB"/>
<stop offset="1" stop-color="#4F52FE"/>
</linearGradient>
</defs>
</svg>
