<svg width="44" height="44" viewBox="0 0 44 44" fill="none" xmlns="http://www.w3.org/2000/svg">
<rect width="44" height="44" rx="22" fill="url(#paint0_linear_1_1196)"/>
<path d="M26.7919 13.9054C28.1064 13.9781 29.3388 14.5673 30.2207 15.5447C31.1025 16.5221 31.5624 17.8085 31.4999 19.1234C31.4999 22.1954 28.8479 24.0824 26.3029 26.3454C23.7909 28.5884 22.4379 29.8144 21.9999 30.0974C21.5229 29.7884 19.8569 28.2744 17.6969 26.3454C15.1409 24.0734 12.4999 22.1684 12.4999 19.1234C12.4375 17.8085 12.8973 16.5221 13.7792 15.5447C14.6611 14.5673 15.8935 13.9781 17.2079 13.9054C17.9361 13.8834 18.6575 14.0506 19.3016 14.3908C19.9458 14.7311 20.4906 15.2326 20.8829 15.8464C21.7229 17.0214 21.8629 17.6094 22.0029 17.6094C22.1429 17.6094 22.2809 17.0214 23.1129 15.8434C23.503 15.2268 24.048 14.7232 24.6936 14.3831C25.3392 14.0431 26.0627 13.8783 26.7919 13.9054ZM26.7919 11.9054C25.8839 11.8764 24.9809 12.0525 24.1504 12.4208C23.3198 12.7891 22.583 13.3399 21.9949 14.0324C21.4073 13.342 20.672 12.7923 19.8435 12.4242C19.0149 12.056 18.1142 11.8788 17.2079 11.9054C15.3628 11.9776 13.6213 12.7774 12.3643 14.13C11.1072 15.4826 10.4369 17.278 10.4999 19.1234C10.4999 22.7334 13.0499 24.9504 15.5149 27.0934C15.7979 27.3394 16.0839 27.5874 16.3679 27.8404L17.3949 28.7584C18.515 29.8242 19.6892 30.8315 20.9129 31.7764C21.2367 31.9861 21.6142 32.0976 21.9999 32.0976C22.3856 32.0976 22.7631 31.9861 23.0869 31.7764C24.3496 30.8027 25.56 29.7629 26.7129 28.6614L27.6349 27.8374C27.9279 27.5774 28.2249 27.3184 28.5199 27.0634C30.8539 25.0384 33.4999 22.7434 33.4999 19.1234C33.5629 17.278 32.8926 15.4826 31.6356 14.13C30.3785 12.7774 28.6371 11.9776 26.7919 11.9054Z" fill="white"/>
<defs>
<linearGradient id="paint0_linear_1_1196" x1="22" y1="0" x2="22" y2="44" gradientUnits="userSpaceOnUse">
<stop offset="1" stop-color="#10B981"/>
</linearGradient>
</defs>
</svg>
