<svg width="20" height="21" viewBox="0 0 20 21" fill="none" xmlns="http://www.w3.org/2000/svg">
<path fill-rule="evenodd" clip-rule="evenodd" d="M9.67624 2.16675C5.25265 2.16675 1.66663 5.67357 1.66663 9.99946C1.66663 14.3254 5.25265 17.8322 9.67624 17.8322C11.5682 17.8322 13.3069 17.1907 14.6774 16.118L17.2808 18.6573L17.3501 18.7156C17.5918 18.8905 17.9345 18.8706 18.1532 18.6562C18.3938 18.4203 18.3933 18.0384 18.1521 17.8031L15.5793 15.2937C16.8874 13.8996 17.6859 12.0407 17.6859 9.99946C17.6859 5.67357 14.0998 2.16675 9.67624 2.16675ZM9.67624 3.37319C13.4185 3.37319 16.4522 6.33988 16.4522 9.99946C16.4522 13.659 13.4185 16.6257 9.67624 16.6257C5.934 16.6257 2.90032 13.659 2.90032 9.99946C2.90032 6.33988 5.934 3.37319 9.67624 3.37319Z" fill="url(#paint0_linear_72_76)"/>
<defs>
<linearGradient id="paint0_linear_72_76" x1="18.3333" y1="18.8334" x2="1.39515" y2="18.5528" gradientUnits="userSpaceOnUse">
<stop stop-color="#FC14CB"/>
<stop offset="1" stop-color="#4F52FE"/>
</linearGradient>
</defs>
</svg>
