<svg width="20" height="21" viewBox="0 0 20 21" fill="none" xmlns="http://www.w3.org/2000/svg">
<path d="M9.67651 2.16675C14.1 2.16683 17.6863 5.67391 17.6863 9.99976C17.6862 12.0411 16.8863 13.8987 15.5779 15.2927L18.1521 17.8035C18.3932 18.0387 18.3936 18.4202 18.1531 18.656C17.9344 18.8704 17.592 18.8904 17.3503 18.7156L17.281 18.657L14.6755 16.116C13.3051 17.1883 11.5682 17.8318 9.67651 17.8318C5.25302 17.8318 1.66691 14.3255 1.66675 9.99976C1.66675 5.67387 5.25292 2.16675 9.67651 2.16675ZM9.67651 3.3728C5.93428 3.3728 2.90015 6.34017 2.90015 9.99976C2.90031 13.6592 5.93438 16.6257 9.67651 16.6257C13.4186 16.6257 16.4517 13.6592 16.4519 9.99976C16.4519 6.34022 13.4187 3.37288 9.67651 3.3728Z" fill="url(#paint0_linear_1_6592)"/>
<defs>
<linearGradient id="paint0_linear_1_6592" x1="18.3334" y1="18.8334" x2="1.39527" y2="18.5528" gradientUnits="userSpaceOnUse">
<stop offset="1" stop-color="#10B981"/>
</linearGradient>
</defs>
</svg>
