<svg width="351" height="72" viewBox="0 0 351 72" fill="none" xmlns="http://www.w3.org/2000/svg">
<g filter="url(#filter0_dd_6_3250)">
<rect x="8" y="4" width="335" height="56" rx="16" fill="url(#paint0_linear_6_3250)"/>
<path fill-rule="evenodd" clip-rule="evenodd" d="M311 24L309.59 25.41L315.17 31H303V33H315.17L309.59 38.59L311 40L319 32L311 24Z" fill="white"/>
<path d="M33.584 38.192C32.7093 38.192 31.904 37.9893 31.168 37.584C30.432 37.1787 29.84 36.5813 29.392 35.792C28.9547 34.992 28.736 34.0107 28.736 32.848C28.736 31.696 28.96 30.7147 29.408 29.904C29.8667 29.0827 30.4693 28.4587 31.216 28.032C31.9733 27.5947 32.7893 27.376 33.664 27.376C34.336 27.376 34.9387 27.5147 35.472 27.792C36.0053 28.0587 36.448 28.3733 36.8 28.736L35.552 30.24C35.2853 29.9947 35.0027 29.7973 34.704 29.648C34.416 29.488 34.0853 29.408 33.712 29.408C33.2427 29.408 32.8107 29.5413 32.416 29.808C32.032 30.0747 31.7227 30.4587 31.488 30.96C31.264 31.4613 31.152 32.064 31.152 32.768C31.152 33.8347 31.3813 34.6667 31.84 35.264C32.2987 35.8613 32.912 36.16 33.68 36.16C34.1067 36.16 34.4853 36.064 34.816 35.872C35.1573 35.68 35.456 35.4507 35.712 35.184L36.96 36.656C36.0853 37.68 34.96 38.192 33.584 38.192ZM38.1025 38V30.064H40.0225L40.1825 31.456H40.2465C40.5345 30.9227 40.8812 30.528 41.2865 30.272C41.6918 30.0053 42.0972 29.872 42.5025 29.872C42.7265 29.872 42.9132 29.888 43.0625 29.92C43.2118 29.9413 43.3398 29.9787 43.4465 30.032L43.0625 32.064C42.9238 32.0213 42.7852 31.9893 42.6465 31.968C42.5185 31.9467 42.3692 31.936 42.1985 31.936C41.8998 31.936 41.5852 32.048 41.2545 32.272C40.9345 32.4853 40.6678 32.8587 40.4545 33.392V38H38.1025ZM47.6233 38.192C46.8659 38.192 46.1833 38.0267 45.5753 37.696C44.9673 37.3653 44.4873 36.8907 44.1353 36.272C43.7833 35.6533 43.6073 34.9067 43.6073 34.032C43.6073 33.168 43.7833 32.4267 44.1353 31.808C44.4979 31.1893 44.9673 30.7147 45.5433 30.384C46.1193 30.0427 46.7219 29.872 47.3513 29.872C48.1086 29.872 48.7326 30.0427 49.2233 30.384C49.7246 30.7147 50.0979 31.168 50.3433 31.744C50.5993 32.3093 50.7273 32.9547 50.7273 33.68C50.7273 33.8827 50.7166 34.0853 50.6953 34.288C50.6739 34.48 50.6526 34.624 50.6313 34.72H45.8793C45.9859 35.296 46.2259 35.7227 46.5993 36C46.9726 36.2667 47.4206 36.4 47.9433 36.4C48.5086 36.4 49.0793 36.224 49.6553 35.872L50.4393 37.296C50.0339 37.5733 49.5806 37.792 49.0793 37.952C48.5779 38.112 48.0926 38.192 47.6233 38.192ZM45.8633 33.168H48.7273C48.7273 32.7307 48.6206 32.3733 48.4073 32.096C48.2046 31.808 47.8686 31.664 47.3993 31.664C47.0366 31.664 46.7113 31.792 46.4233 32.048C46.1353 32.2933 45.9486 32.6667 45.8633 33.168ZM53.9306 38.192C53.2053 38.192 52.6293 37.9627 52.2026 37.504C51.776 37.0347 51.5626 36.464 51.5626 35.792C51.5626 34.96 51.9146 34.3093 52.6186 33.84C53.3226 33.3707 54.4586 33.056 56.0266 32.896C56.0053 32.544 55.8986 32.2667 55.7066 32.064C55.5253 31.8507 55.216 31.744 54.7786 31.744C54.448 31.744 54.112 31.808 53.7706 31.936C53.4293 32.064 53.0666 32.24 52.6826 32.464L51.8346 30.912C52.336 30.6027 52.8693 30.352 53.4346 30.16C54.0106 29.968 54.608 29.872 55.2266 29.872C56.24 29.872 57.0186 30.1653 57.5626 30.752C58.1066 31.3387 58.3786 32.24 58.3786 33.456V38H56.4586L56.2986 37.184H56.2346C55.904 37.4827 55.5466 37.728 55.1626 37.92C54.7893 38.1013 54.3786 38.192 53.9306 38.192ZM54.7306 36.368C54.9973 36.368 55.2266 36.3093 55.4186 36.192C55.6213 36.064 55.824 35.8987 56.0266 35.696V34.304C55.1946 34.4107 54.6186 34.5813 54.2986 34.816C53.9786 35.04 53.8186 35.3067 53.8186 35.616C53.8186 35.872 53.8986 36.064 54.0586 36.192C54.2293 36.3093 54.4533 36.368 54.7306 36.368ZM62.8929 38.192C61.9115 38.192 61.2075 37.9093 60.7809 37.344C60.3649 36.7787 60.1569 36.0373 60.1569 35.12V31.904H59.0689V30.16L60.2849 30.064L60.5569 27.952H62.5089V30.064H64.4129V31.904H62.5089V35.088C62.5089 35.536 62.5995 35.8613 62.7809 36.064C62.9729 36.256 63.2235 36.352 63.5329 36.352C63.6609 36.352 63.7889 36.336 63.9169 36.304C64.0555 36.272 64.1782 36.2347 64.2849 36.192L64.6529 37.904C64.4502 37.968 64.1995 38.032 63.9009 38.096C63.6129 38.16 63.2769 38.192 62.8929 38.192ZM68.9826 38.192C68.2253 38.192 67.5426 38.0267 66.9346 37.696C66.3266 37.3653 65.8466 36.8907 65.4946 36.272C65.1426 35.6533 64.9666 34.9067 64.9666 34.032C64.9666 33.168 65.1426 32.4267 65.4946 31.808C65.8573 31.1893 66.3266 30.7147 66.9026 30.384C67.4786 30.0427 68.0813 29.872 68.7106 29.872C69.468 29.872 70.092 30.0427 70.5826 30.384C71.084 30.7147 71.4573 31.168 71.7026 31.744C71.9586 32.3093 72.0866 32.9547 72.0866 33.68C72.0866 33.8827 72.076 34.0853 72.0546 34.288C72.0333 34.48 72.012 34.624 71.9906 34.72H67.2386C67.3453 35.296 67.5853 35.7227 67.9586 36C68.332 36.2667 68.78 36.4 69.3026 36.4C69.868 36.4 70.4386 36.224 71.0146 35.872L71.7986 37.296C71.3933 37.5733 70.94 37.792 70.4386 37.952C69.9373 38.112 69.452 38.192 68.9826 38.192ZM67.2226 33.168H70.0866C70.0866 32.7307 69.98 32.3733 69.7666 32.096C69.564 31.808 69.228 31.664 68.7586 31.664C68.396 31.664 68.0706 31.792 67.7826 32.048C67.4946 32.2933 67.308 32.6667 67.2226 33.168ZM79.055 32.72L78.799 33.68H81.023L80.783 32.72C80.6443 32.1973 80.5003 31.6427 80.351 31.056C80.2123 30.4693 80.0737 29.904 79.935 29.36H79.871C79.743 29.9147 79.6097 30.4853 79.471 31.072C79.343 31.648 79.2043 32.1973 79.055 32.72ZM75.279 38L78.543 27.568H81.375L84.639 38H82.143L81.503 35.52H78.319L77.679 38H75.279ZM88.7929 38.192C88.0569 38.192 87.3902 38.032 86.7929 37.712C86.2062 37.3813 85.7369 36.9067 85.3849 36.288C85.0435 35.6587 84.8729 34.9067 84.8729 34.032C84.8729 33.1467 85.0649 32.3947 85.4489 31.776C85.8329 31.1573 86.3395 30.688 86.9689 30.368C87.5982 30.0373 88.2755 29.872 89.0009 29.872C89.4915 29.872 89.9235 29.952 90.2969 30.112C90.6809 30.272 91.0222 30.4747 91.3209 30.72L90.2169 32.24C89.8435 31.9307 89.4862 31.776 89.1449 31.776C88.5795 31.776 88.1262 31.9787 87.7849 32.384C87.4542 32.7893 87.2889 33.3387 87.2889 34.032C87.2889 34.7147 87.4542 35.264 87.7849 35.68C88.1262 36.0853 88.5529 36.288 89.0649 36.288C89.3209 36.288 89.5715 36.2347 89.8169 36.128C90.0622 36.0107 90.2862 35.872 90.4889 35.712L91.4169 37.248C91.0222 37.5893 90.5955 37.8347 90.1369 37.984C89.6782 38.1227 89.2302 38.192 88.7929 38.192ZM95.5585 38.192C94.8225 38.192 94.1558 38.032 93.5585 37.712C92.9718 37.3813 92.5025 36.9067 92.1505 36.288C91.8092 35.6587 91.6385 34.9067 91.6385 34.032C91.6385 33.1467 91.8305 32.3947 92.2145 31.776C92.5985 31.1573 93.1052 30.688 93.7345 30.368C94.3638 30.0373 95.0412 29.872 95.7665 29.872C96.2572 29.872 96.6892 29.952 97.0625 30.112C97.4465 30.272 97.7878 30.4747 98.0865 30.72L96.9825 32.24C96.6092 31.9307 96.2518 31.776 95.9105 31.776C95.3452 31.776 94.8918 31.9787 94.5505 32.384C94.2198 32.7893 94.0545 33.3387 94.0545 34.032C94.0545 34.7147 94.2198 35.264 94.5505 35.68C94.8918 36.0853 95.3185 36.288 95.8305 36.288C96.0865 36.288 96.3372 36.2347 96.5825 36.128C96.8278 36.0107 97.0518 35.872 97.2545 35.712L98.1825 37.248C97.7878 37.5893 97.3612 37.8347 96.9025 37.984C96.4438 38.1227 95.9958 38.192 95.5585 38.192ZM102.276 38.192C101.604 38.192 100.969 38.032 100.372 37.712C99.7855 37.3813 99.3108 36.9067 98.9481 36.288C98.5855 35.6587 98.4041 34.9067 98.4041 34.032C98.4041 33.1467 98.5855 32.3947 98.9481 31.776C99.3108 31.1573 99.7855 30.688 100.372 30.368C100.969 30.0373 101.604 29.872 102.276 29.872C102.948 29.872 103.577 30.0373 104.164 30.368C104.751 30.688 105.225 31.1573 105.588 31.776C105.951 32.3947 106.132 33.1467 106.132 34.032C106.132 34.9067 105.951 35.6587 105.588 36.288C105.225 36.9067 104.751 37.3813 104.164 37.712C103.577 38.032 102.948 38.192 102.276 38.192ZM102.276 36.288C102.756 36.288 103.119 36.0853 103.364 35.68C103.609 35.264 103.732 34.7147 103.732 34.032C103.732 33.3387 103.609 32.7893 103.364 32.384C103.119 31.9787 102.756 31.776 102.276 31.776C101.785 31.776 101.417 31.9787 101.172 32.384C100.937 32.7893 100.82 33.3387 100.82 34.032C100.82 34.7147 100.937 35.264 101.172 35.68C101.417 36.0853 101.785 36.288 102.276 36.288ZM109.877 38.192C109.013 38.192 108.384 37.9093 107.989 37.344C107.605 36.768 107.413 35.984 107.413 34.992V30.064H109.765V34.688C109.765 35.2533 109.845 35.648 110.005 35.872C110.165 36.0853 110.416 36.192 110.757 36.192C111.056 36.192 111.306 36.1227 111.509 35.984C111.712 35.8453 111.93 35.6213 112.165 35.312V30.064H114.517V38H112.597L112.421 36.896H112.373C112.042 37.2907 111.68 37.6053 111.285 37.84C110.89 38.0747 110.421 38.192 109.877 38.192ZM116.337 38V30.064H118.257L118.417 31.072H118.481C118.822 30.752 119.196 30.4747 119.601 30.24C120.017 29.9947 120.492 29.872 121.025 29.872C121.889 29.872 122.513 30.16 122.897 30.736C123.292 31.3013 123.489 32.08 123.489 33.072V38H121.137V33.376C121.137 32.8 121.057 32.4053 120.897 32.192C120.748 31.9787 120.502 31.872 120.161 31.872C119.862 31.872 119.606 31.9413 119.393 32.08C119.18 32.208 118.945 32.3947 118.689 32.64V38H116.337ZM128.299 38.192C127.318 38.192 126.614 37.9093 126.187 37.344C125.771 36.7787 125.563 36.0373 125.563 35.12V31.904H124.475V30.16L125.691 30.064L125.963 27.952H127.915V30.064H129.819V31.904H127.915V35.088C127.915 35.536 128.006 35.8613 128.187 36.064C128.379 36.256 128.63 36.352 128.939 36.352C129.067 36.352 129.195 36.336 129.323 36.304C129.462 36.272 129.584 36.2347 129.691 36.192L130.059 37.904C129.856 37.968 129.606 38.032 129.307 38.096C129.019 38.16 128.683 38.192 128.299 38.192Z" fill="white"/>
</g>
<defs>
<filter id="filter0_dd_6_3250" x="0" y="0" width="351" height="72" filterUnits="userSpaceOnUse" color-interpolation-filters="sRGB">
<feFlood flood-opacity="0" result="BackgroundImageFix"/>
<feColorMatrix in="SourceAlpha" type="matrix" values="0 0 0 0 0 0 0 0 0 0 0 0 0 0 0 0 0 0 127 0" result="hardAlpha"/>
<feOffset dy="4"/>
<feGaussianBlur stdDeviation="4"/>
<feColorMatrix type="matrix" values="0 0 0 0 0.376471 0 0 0 0 0.380392 0 0 0 0 0.439216 0 0 0 0.16 0"/>
<feBlend mode="normal" in2="BackgroundImageFix" result="effect1_dropShadow_6_3250"/>
<feColorMatrix in="SourceAlpha" type="matrix" values="0 0 0 0 0 0 0 0 0 0 0 0 0 0 0 0 0 0 127 0" result="hardAlpha"/>
<feOffset/>
<feGaussianBlur stdDeviation="1"/>
<feColorMatrix type="matrix" values="0 0 0 0 0.156863 0 0 0 0 0.160784 0 0 0 0 0.239216 0 0 0 0.04 0"/>
<feBlend mode="normal" in2="effect1_dropShadow_6_3250" result="effect2_dropShadow_6_3250"/>
<feBlend mode="normal" in="SourceGraphic" in2="effect2_dropShadow_6_3250" result="shape"/>
</filter>
<linearGradient id="paint0_linear_6_3250" x1="8" y1="32" x2="343" y2="32" gradientUnits="userSpaceOnUse">
<stop stop-color="#FC14CB"/>
<stop offset="1" stop-color="#4F52FE"/>
</linearGradient>
</defs>
</svg>
