<svg width="351" height="72" viewBox="0 0 351 72" fill="none" xmlns="http://www.w3.org/2000/svg">
<g filter="url(#filter0_dd_353_678)">
<rect x="8" y="4" width="335" height="56" rx="16" fill="url(#paint0_linear_353_678)"/>
<path fill-rule="evenodd" clip-rule="evenodd" d="M311 24L309.59 25.41L315.17 31H303V33H315.17L309.59 38.59L311 40L319 32L311 24Z" fill="white"/>
<path d="M32.416 38.192C31.7333 38.192 31.0507 38.064 30.368 37.808C29.696 37.552 29.0933 37.1787 28.56 36.688L29.904 35.072C30.2773 35.392 30.6933 35.6533 31.152 35.856C31.6107 36.0587 32.0533 36.16 32.48 36.16C32.9707 36.16 33.3333 36.0693 33.568 35.888C33.8133 35.7067 33.936 35.4613 33.936 35.152C33.936 34.8213 33.7973 34.5813 33.52 34.432C33.2533 34.272 32.8907 34.096 32.432 33.904L31.072 33.328C30.72 33.1787 30.384 32.9813 30.064 32.736C29.744 32.48 29.4827 32.1653 29.28 31.792C29.0773 31.4187 28.976 30.9813 28.976 30.48C28.976 29.904 29.1307 29.3813 29.44 28.912C29.76 28.4427 30.1973 28.0693 30.752 27.792C31.3173 27.5147 31.9627 27.376 32.688 27.376C33.2853 27.376 33.8827 27.4933 34.48 27.728C35.0773 27.9627 35.6 28.304 36.048 28.752L34.848 30.24C34.5067 29.9733 34.1653 29.7707 33.824 29.632C33.4827 29.4827 33.104 29.408 32.688 29.408C32.2827 29.408 31.9573 29.4933 31.712 29.664C31.4773 29.824 31.36 30.0533 31.36 30.352C31.36 30.672 31.5093 30.912 31.808 31.072C32.1173 31.232 32.496 31.4027 32.944 31.584L34.288 32.128C34.9173 32.384 35.4187 32.736 35.792 33.184C36.1653 33.632 36.352 34.224 36.352 34.96C36.352 35.536 36.1973 36.0693 35.888 36.56C35.5787 37.0507 35.1307 37.4453 34.544 37.744C33.9573 38.0427 33.248 38.192 32.416 38.192ZM40.0646 38.192C39.2006 38.192 38.5713 37.9093 38.1766 37.344C37.7926 36.768 37.6006 35.984 37.6006 34.992V30.064H39.9526V34.688C39.9526 35.2533 40.0326 35.648 40.1926 35.872C40.3526 36.0853 40.6033 36.192 40.9446 36.192C41.2433 36.192 41.494 36.1227 41.6966 35.984C41.8993 35.8453 42.118 35.6213 42.3526 35.312V30.064H44.7046V38H42.7846L42.6086 36.896H42.5606C42.23 37.2907 41.8673 37.6053 41.4726 37.84C41.078 38.0747 40.6086 38.192 40.0646 38.192ZM50.6844 38.192C50.3324 38.192 49.975 38.1067 49.6124 37.936C49.2604 37.7547 48.9297 37.4933 48.6204 37.152H48.5564L48.3644 38H46.5244V26.784H48.8764V29.536L48.8124 30.752C49.1217 30.4747 49.4577 30.2613 49.8204 30.112C50.183 29.952 50.5457 29.872 50.9084 29.872C51.5484 29.872 52.103 30.0373 52.5724 30.368C53.0417 30.6987 53.399 31.168 53.6444 31.776C53.9004 32.3733 54.0284 33.0773 54.0284 33.888C54.0284 34.7947 53.8684 35.5733 53.5484 36.224C53.2284 36.864 52.8124 37.3547 52.3004 37.696C51.799 38.0267 51.2604 38.192 50.6844 38.192ZM50.1404 36.272C50.5457 36.272 50.8924 36.0853 51.1804 35.712C51.4684 35.3387 51.6124 34.7467 51.6124 33.936C51.6124 32.5067 51.1537 31.792 50.2364 31.792C49.767 31.792 49.3137 32.032 48.8764 32.512V35.76C49.0897 35.952 49.303 36.0853 49.5164 36.16C49.7297 36.2347 49.9377 36.272 50.1404 36.272ZM55.4463 38V30.064H57.3663L57.5263 31.088H57.5903C57.9209 30.7573 58.2729 30.4747 58.6463 30.24C59.0196 29.9947 59.4676 29.872 59.9903 29.872C60.5556 29.872 61.0089 29.9893 61.3503 30.224C61.7023 30.448 61.9796 30.7733 62.1823 31.2C62.5343 30.8373 62.9076 30.528 63.3023 30.272C63.6969 30.0053 64.1556 29.872 64.6783 29.872C65.5316 29.872 66.1556 30.16 66.5503 30.736C66.9556 31.3013 67.1583 32.08 67.1583 33.072V38H64.8063V33.376C64.8063 32.8 64.7263 32.4053 64.5663 32.192C64.4169 31.9787 64.1716 31.872 63.8303 31.872C63.4356 31.872 62.9823 32.128 62.4703 32.64V38H60.1183V33.376C60.1183 32.8 60.0383 32.4053 59.8783 32.192C59.7289 31.9787 59.4836 31.872 59.1423 31.872C58.7476 31.872 58.2996 32.128 57.7983 32.64V38H55.4463ZM68.915 38V30.064H71.267V38H68.915ZM70.083 28.896C69.6883 28.896 69.3683 28.784 69.123 28.56C68.8777 28.336 68.755 28.0373 68.755 27.664C68.755 27.2907 68.8777 26.992 69.123 26.768C69.3683 26.544 69.6883 26.432 70.083 26.432C70.4777 26.432 70.7977 26.544 71.043 26.768C71.2883 26.992 71.411 27.2907 71.411 27.664C71.411 28.0373 71.2883 28.336 71.043 28.56C70.7977 28.784 70.4777 28.896 70.083 28.896ZM76.1429 38.192C75.1615 38.192 74.4575 37.9093 74.0309 37.344C73.6149 36.7787 73.4069 36.0373 73.4069 35.12V31.904H72.3189V30.16L73.5349 30.064L73.8069 27.952H75.7589V30.064H77.6629V31.904H75.7589V35.088C75.7589 35.536 75.8495 35.8613 76.0309 36.064C76.2229 36.256 76.4735 36.352 76.7829 36.352C76.9109 36.352 77.0389 36.336 77.1669 36.304C77.3055 36.272 77.4282 36.2347 77.5349 36.192L77.9029 37.904C77.7002 37.968 77.4495 38.032 77.1509 38.096C76.8629 38.16 76.5269 38.192 76.1429 38.192Z" fill="white"/>
</g>
<defs>
<filter id="filter0_dd_353_678" x="0" y="0" width="351" height="72" filterUnits="userSpaceOnUse" color-interpolation-filters="sRGB">
<feFlood flood-opacity="0" result="BackgroundImageFix"/>
<feColorMatrix in="SourceAlpha" type="matrix" values="0 0 0 0 0 0 0 0 0 0 0 0 0 0 0 0 0 0 127 0" result="hardAlpha"/>
<feOffset dy="4"/>
<feGaussianBlur stdDeviation="4"/>
<feColorMatrix type="matrix" values="0 0 0 0 0.376471 0 0 0 0 0.380392 0 0 0 0 0.439216 0 0 0 0.16 0"/>
<feBlend mode="normal" in2="BackgroundImageFix" result="effect1_dropShadow_353_678"/>
<feColorMatrix in="SourceAlpha" type="matrix" values="0 0 0 0 0 0 0 0 0 0 0 0 0 0 0 0 0 0 127 0" result="hardAlpha"/>
<feOffset/>
<feGaussianBlur stdDeviation="1"/>
<feColorMatrix type="matrix" values="0 0 0 0 0.156863 0 0 0 0 0.160784 0 0 0 0 0.239216 0 0 0 0.04 0"/>
<feBlend mode="normal" in2="effect1_dropShadow_353_678" result="effect2_dropShadow_353_678"/>
<feBlend mode="normal" in="SourceGraphic" in2="effect2_dropShadow_353_678" result="shape"/>
</filter>
<linearGradient id="paint0_linear_353_678" x1="8" y1="32" x2="343" y2="32" gradientUnits="userSpaceOnUse">
<stop stop-color="#FC14CB"/>
<stop offset="1" stop-color="#4F52FE"/>
</linearGradient>
</defs>
</svg>
