<svg width="33" height="32" viewBox="0 0 33 32" fill="none" xmlns="http://www.w3.org/2000/svg">
<g clip-path="url(#clip0_45_993)">
<path d="M16.4004 18C17.505 18 18.4004 17.1046 18.4004 16C18.4004 14.8954 17.505 14 16.4004 14C15.2958 14 14.4004 14.8954 14.4004 16C14.4004 17.1046 15.2958 18 16.4004 18Z" fill="black"/>
<path d="M8.40039 18C9.50496 18 10.4004 17.1046 10.4004 16C10.4004 14.8954 9.50496 14 8.40039 14C7.29582 14 6.40039 14.8954 6.40039 16C6.40039 17.1046 7.29582 18 8.40039 18Z" fill="black"/>
<path d="M24.4004 18C25.505 18 26.4004 17.1046 26.4004 16C26.4004 14.8954 25.505 14 24.4004 14C23.2958 14 22.4004 14.8954 22.4004 16C22.4004 17.1046 23.2958 18 24.4004 18Z" fill="black"/>
</g>
<defs>
<clipPath id="clip0_45_993">
<rect width="32" height="32" fill="white" transform="translate(0.400391)"/>
</clipPath>
</defs>
</svg>
