<svg width="24" height="25" viewBox="0 0 24 25" fill="none" xmlns="http://www.w3.org/2000/svg">
<g clip-path="url(#clip0_27_199)">
<path d="M12 14.4399C12.8284 14.4399 13.5 13.7684 13.5 12.9399C13.5 12.1115 12.8284 11.4399 12 11.4399C11.1716 11.4399 10.5 12.1115 10.5 12.9399C10.5 13.7684 11.1716 14.4399 12 14.4399Z" fill="black"/>
<path d="M6 14.4399C6.82843 14.4399 7.5 13.7684 7.5 12.9399C7.5 12.1115 6.82843 11.4399 6 11.4399C5.17157 11.4399 4.5 12.1115 4.5 12.9399C4.5 13.7684 5.17157 14.4399 6 14.4399Z" fill="black"/>
<path d="M18 14.4399C18.8284 14.4399 19.5 13.7684 19.5 12.9399C19.5 12.1115 18.8284 11.4399 18 11.4399C17.1716 11.4399 16.5 12.1115 16.5 12.9399C16.5 13.7684 17.1716 14.4399 18 14.4399Z" fill="black"/>
</g>
<defs>
<clipPath id="clip0_27_199">
<rect width="24" height="24" fill="white" transform="translate(0 0.939941)"/>
</clipPath>
</defs>
</svg>
