<svg width="25" height="25" viewBox="0 0 25 25" fill="none" xmlns="http://www.w3.org/2000/svg">
<path d="M17.9854 10.6412C19.096 10.6522 20.1579 11.0983 20.9432 11.8836C21.7286 12.6689 22.1746 13.7308 22.1857 14.8413C22.1998 15.9377 21.7439 16.9854 21.0025 17.7637C20.2027 18.6032 19.1229 19.0269 17.9854 19.0416C16.3203 19.063 16.3183 21.647 17.9854 21.6256C21.7123 21.5776 24.7217 18.5682 24.7697 14.8413C24.8176 11.1142 21.6401 8.10411 17.9854 8.05716C16.3183 8.03573 16.3203 10.6198 17.9854 10.6412ZM6.96448 19.0261C5.85392 19.0151 4.79196 18.5691 4.00663 17.7837C3.22131 16.9984 2.77525 15.9365 2.76423 14.8259C2.75014 13.7295 3.20588 12.6818 3.94736 11.9034C4.74714 11.0639 5.82695 10.6403 6.96445 10.6257C8.62949 10.6043 8.63154 8.02018 6.96445 8.04164C3.2375 8.08954 0.228123 11.0989 0.180222 14.8259C0.132322 18.553 3.30976 21.5632 6.96448 21.6101C8.63157 21.6315 8.62951 19.0475 6.96448 19.0261Z" fill="#4A5699"/>
<path d="M8.29288 9.3799C8.30385 8.26936 8.74988 7.2074 9.53519 6.42208C10.3205 5.63677 11.3825 5.19073 12.493 5.17976C13.5894 5.16567 14.6371 5.62146 15.4153 6.36291C16.2549 7.16269 16.6786 8.24243 16.6932 9.3799C16.7146 11.0449 19.2987 11.047 19.2773 9.3799C19.2293 5.65302 16.2199 2.64365 12.493 2.59575C8.76586 2.54785 5.75585 5.72519 5.70887 9.3799C5.68739 11.047 8.27147 11.0449 8.29288 9.3799Z" fill="#C45FA0"/>
<path d="M13.3067 11.55C13.7106 11.9538 13.7106 12.6085 13.3067 13.0123L10.3065 16.0126C9.9026 16.4164 9.24794 16.4164 8.84415 16.0126C8.4403 15.6087 8.4403 14.954 8.84415 14.5503L11.8444 11.55C12.2482 11.1461 12.9029 11.1461 13.3067 11.55Z" fill="#F39A2B"/>
<path d="M11.845 11.5499C12.2487 11.1461 12.9034 11.1461 13.3072 11.5499L16.3076 14.5503C16.7113 14.9539 16.7113 15.6087 16.3076 16.0126C15.9037 16.4164 15.249 16.4164 14.8452 16.0126L11.845 13.0123C11.441 12.6085 11.441 11.9538 11.845 11.5499Z" fill="#F39A2B"/>
<path d="M12.55 15.481C13.1352 15.481 13.6096 15.9554 13.6096 16.5405V20.8883C13.6096 21.4735 13.1352 21.9478 12.55 21.9478C11.9649 21.9478 11.4905 21.4734 11.4905 20.8883V16.5405C11.4905 15.9553 11.9649 15.481 12.55 15.481Z" fill="#E5594F"/>
</svg>
