<svg width="24" height="24" viewBox="0 0 24 24" fill="none" xmlns="http://www.w3.org/2000/svg">
<path d="M16 10.2924L19.4752 8.15022C19.7837 7.96003 20.171 7.95165 20.4875 8.12832C20.8039 8.30499 21 8.63905 21 9.00148V15.9983C21 16.3607 20.8039 16.6948 20.4875 16.8714C20.171 17.0481 19.7838 17.0397 19.4753 16.8496L16 14.7074" stroke="#323232" stroke-width="1.5" stroke-linecap="round" stroke-linejoin="round"/>
<path d="M13 6H6C4.34315 6 3 7.34315 3 9V16C3 17.6569 4.34315 19 6 19H13C14.6569 19 16 17.6569 16 16V9C16 7.34315 14.6569 6 13 6Z" stroke="#323232" stroke-width="1.5" stroke-linecap="round" stroke-linejoin="round"/>
</svg>
